<mxfile host="65bd71144e">
    <diagram id="uH7TFUyroTzwectZcCgI" name="ページ1">
        <mxGraphModel dx="2264" dy="840" grid="0" gridSize="10" guides="1" tooltips="1" connect="1" arrows="1" fold="1" page="0" pageScale="1" pageWidth="827" pageHeight="1169" background="#524F4F" math="0" shadow="0">
            <root>
                <mxCell id="0"/>
                <mxCell id="1" parent="0"/>
                <mxCell id="85" value="" style="group;resizeWidth=0;resizeHeight=0;" parent="1" vertex="1" connectable="0">
                    <mxGeometry x="-534.5" y="50" width="279" height="160" as="geometry"/>
                </mxCell>
                <object label="BaseDrawer" id="86">
                    <mxCell style="swimlane;fontStyle=0;childLayout=stackLayout;horizontal=1;startSize=30;horizontalStack=0;resizeParent=1;resizeParentMax=0;resizeLast=0;collapsible=1;marginBottom=0;whiteSpace=wrap;html=1;fillColor=#6d8764;fontColor=#ffffff;strokeColor=#3A5431;" parent="85" vertex="1">
                        <mxGeometry width="279" height="160" as="geometry"/>
                    </mxCell>
                </object>
                <mxCell id="87" value="・対応するRenderSetの管理" style="text;align=left;verticalAlign=middle;spacingLeft=4;spacingRight=4;overflow=hidden;points=[[0,0.5],[1,0.5]];portConstraint=eastwest;rotatable=0;whiteSpace=wrap;html=1;fillColor=#303030;fontColor=#FFFFFF;" parent="86" vertex="1">
                    <mxGeometry y="30" width="279" height="30" as="geometry"/>
                </mxCell>
                <mxCell id="208" value="・RenderContextへ描画データのセット" style="text;align=left;verticalAlign=middle;spacingLeft=4;spacingRight=4;overflow=hidden;points=[[0,0.5],[1,0.5]];portConstraint=eastwest;rotatable=0;whiteSpace=wrap;html=1;fillColor=#303030;fontColor=#FFFFFF;" vertex="1" parent="86">
                    <mxGeometry y="60" width="279" height="30" as="geometry"/>
                </mxCell>
                <mxCell id="213" value="・RenderContextのDrawCountのインクリメント" style="text;align=left;verticalAlign=middle;spacingLeft=4;spacingRight=4;overflow=hidden;points=[[0,0.5],[1,0.5]];portConstraint=eastwest;rotatable=0;whiteSpace=wrap;html=1;fillColor=#303030;fontColor=#FFFFFF;" vertex="1" parent="86">
                    <mxGeometry y="90" width="279" height="40" as="geometry"/>
                </mxCell>
                <mxCell id="89" value="#&amp;nbsp; RenderSet*" style="text;align=left;verticalAlign=middle;spacingLeft=4;spacingRight=4;overflow=hidden;points=[[0,0.5],[1,0.5]];portConstraint=eastwest;rotatable=0;whiteSpace=wrap;html=1;fillColor=#303030;fontColor=#FFFFFF;strokeColor=default;" parent="86" vertex="1">
                    <mxGeometry y="130" width="279" height="30" as="geometry"/>
                </mxCell>
                <mxCell id="90" value="" style="group;resizeWidth=0;resizeHeight=0;" parent="1" vertex="1" connectable="0">
                    <mxGeometry x="-695" y="300" width="190" height="60" as="geometry"/>
                </mxCell>
                <object label="Texture2D" id="91">
                    <mxCell style="swimlane;fontStyle=0;childLayout=stackLayout;horizontal=1;startSize=30;horizontalStack=0;resizeParent=1;resizeParentMax=0;resizeLast=0;collapsible=1;marginBottom=0;whiteSpace=wrap;html=1;fillColor=#6d8764;fontColor=#ffffff;strokeColor=#3A5431;" parent="90" vertex="1">
                        <mxGeometry width="190" height="60" as="geometry"/>
                    </mxCell>
                </object>
                <mxCell id="92" value="・板ポリゴン描画" style="text;align=left;verticalAlign=middle;spacingLeft=4;spacingRight=4;overflow=hidden;points=[[0,0.5],[1,0.5]];portConstraint=eastwest;rotatable=0;whiteSpace=wrap;html=1;fillColor=#303030;fontColor=#FFFFFF;" parent="91" vertex="1">
                    <mxGeometry y="30" width="190" height="30" as="geometry"/>
                </mxCell>
                <mxCell id="95" value="" style="group;resizeWidth=0;resizeHeight=0;" parent="1" vertex="1" connectable="0">
                    <mxGeometry x="-490" y="300" width="190" height="60" as="geometry"/>
                </mxCell>
                <object label="Model" id="96">
                    <mxCell style="swimlane;fontStyle=0;childLayout=stackLayout;horizontal=1;startSize=30;horizontalStack=0;resizeParent=1;resizeParentMax=0;resizeLast=0;collapsible=1;marginBottom=0;whiteSpace=wrap;html=1;fillColor=#6d8764;fontColor=#ffffff;strokeColor=#3A5431;" parent="95" vertex="1">
                        <mxGeometry width="190" height="60" as="geometry"/>
                    </mxCell>
                </object>
                <mxCell id="97" value="・モデル描画" style="text;align=left;verticalAlign=middle;spacingLeft=4;spacingRight=4;overflow=hidden;points=[[0,0.5],[1,0.5]];portConstraint=eastwest;rotatable=0;whiteSpace=wrap;html=1;fillColor=#303030;fontColor=#FFFFFF;" parent="96" vertex="1">
                    <mxGeometry y="30" width="190" height="30" as="geometry"/>
                </mxCell>
                <mxCell id="98" value="" style="group;resizeWidth=0;resizeHeight=0;" parent="1" vertex="1" connectable="0">
                    <mxGeometry x="-280" y="300" width="209" height="60" as="geometry"/>
                </mxCell>
                <object label="AnimationModel" id="99">
                    <mxCell style="swimlane;fontStyle=0;childLayout=stackLayout;horizontal=1;startSize=30;horizontalStack=0;resizeParent=1;resizeParentMax=0;resizeLast=0;collapsible=1;marginBottom=0;whiteSpace=wrap;html=1;fillColor=#6d8764;fontColor=#ffffff;strokeColor=#3A5431;" parent="98" vertex="1">
                        <mxGeometry width="209" height="60" as="geometry"/>
                    </mxCell>
                </object>
                <mxCell id="100" value="・スキンアニメーションモデル描画" style="text;align=left;verticalAlign=middle;spacingLeft=4;spacingRight=4;overflow=hidden;points=[[0,0.5],[1,0.5]];portConstraint=eastwest;rotatable=0;whiteSpace=wrap;html=1;fillColor=#303030;fontColor=#FFFFFF;" parent="99" vertex="1">
                    <mxGeometry y="30" width="209" height="30" as="geometry"/>
                </mxCell>
                <mxCell id="110" value="" style="edgeStyle=none;html=1;endArrow=block;endFill=0;entryX=0.499;entryY=1;entryDx=0;entryDy=0;exitX=0.5;exitY=0;exitDx=0;exitDy=0;entryPerimeter=0;fontColor=#F0F0F0;strokeColor=#FFFFFF;" parent="1" source="99" target="89" edge="1">
                    <mxGeometry relative="1" as="geometry">
                        <mxPoint x="-310" y="312.8599999999999" as="sourcePoint"/>
                        <mxPoint x="-310" y="215.86" as="targetPoint"/>
                        <Array as="points">
                            <mxPoint x="-175" y="270"/>
                            <mxPoint x="-395" y="270"/>
                        </Array>
                    </mxGeometry>
                </mxCell>
                <mxCell id="107" value="" style="edgeStyle=none;html=1;endArrow=block;endFill=0;exitX=0.5;exitY=0;exitDx=0;exitDy=0;fontColor=#F0F0F0;strokeColor=#FFFFFF;" parent="1" source="96" target="86" edge="1">
                    <mxGeometry relative="1" as="geometry"/>
                </mxCell>
                <mxCell id="109" value="" style="edgeStyle=none;html=1;endArrow=block;endFill=0;entryX=0.499;entryY=1.016;entryDx=0;entryDy=0;exitX=0.5;exitY=0;exitDx=0;exitDy=0;entryPerimeter=0;fontColor=#F0F0F0;strokeColor=#FFFFFF;" parent="1" source="91" target="89" edge="1">
                    <mxGeometry relative="1" as="geometry">
                        <mxPoint x="-385" y="309.9999999999999" as="sourcePoint"/>
                        <mxPoint x="-385" y="213" as="targetPoint"/>
                        <Array as="points">
                            <mxPoint x="-600" y="270"/>
                            <mxPoint x="-395" y="270"/>
                        </Array>
                    </mxGeometry>
                </mxCell>
            </root>
        </mxGraphModel>
    </diagram>
</mxfile>